<?xml version="1.0" encoding="utf-8"?>
<!-- Generator: Adobe Illustrator 26.5.0, SVG Export Plug-In . SVG Version: 6.00 Build 0)  -->
<svg version="1.1" id="Layer_1" xmlns="http://www.w3.org/2000/svg" xmlns:xlink="http://www.w3.org/1999/xlink" x="0px" y="0px"
	 viewBox="0 0 25.4 24.3" style="enable-background:new 0 0 25.4 24.3;" xml:space="preserve">
<style type="text/css">
	.st0{fill:#4EB857;}
</style>
<g>
	<path class="st0" d="M9.8,14.4H3.4c-1.6,0-2.4-0.6-2.4-1.7c0-1.9,1.3-3,3.4-3h6.3L12,3.7c0.4-1.8,1.4-2.7,3-2.7
		C16.4,1,17,1.6,17,2.7c0,0.3,0,0.6-0.1,0.9l-1.3,6.1h6.4c1.6,0,2.4,0.6,2.4,1.7c0,2-1.4,3-3.4,3h-6.4l-1.3,6.1
		c-0.4,1.8-1.4,2.7-3,2.7c-1.3,0-2-0.6-2-1.8c0-0.3,0-0.6,0.1-0.9L9.8,14.4z"/>
</g>
<g>
</g>
<g>
</g>
<g>
</g>
<g>
</g>
<g>
</g>
<g>
</g>
</svg>
