<?xml version="1.0" encoding="utf-8"?>
<!-- Generator: Adobe Illustrator 26.5.0, SVG Export Plug-In . SVG Version: 6.00 Build 0)  -->
<svg version="1.1" id="Layer_1" xmlns="http://www.w3.org/2000/svg" xmlns:xlink="http://www.w3.org/1999/xlink" x="0px" y="0px"
	 viewBox="0 0 67.5 49.1" style="enable-background:new 0 0 67.5 49.1;" xml:space="preserve">
<style type="text/css">
	.st0{fill:#4EB857;}
</style>
<path class="st0" d="M33.5,4.6c3.5,0.1,6.9,0.6,10.1,1.9c1.1,0.5,2,0.3,2.8-0.6c1.2-1.4,2.6-2.6,3.9-3.9c1-1,2.2-1.5,3.2-0.4
	C54.5,2.7,54,3.8,53,4.8C47.9,9.9,42.8,15,37.6,20.1c-8.3,8.4-16.7,16.7-25.1,25.1c-0.4,0.4-0.8,0.8-1.2,1.2c-0.9,0.8-2,1-2.9,0.1
	c-0.9-0.9-0.8-2,0-2.9c0.9-1,1.8-2,2.8-2.8c1.5-1.2,1.6-2-0.1-3.3c-3.5-2.7-6.4-6-8.9-9.7c-1-1.4-1.3-2.9-0.2-4.4
	C8.5,14.7,16.4,7.8,27.4,5.3c1.2-0.3,2.5-0.4,3.7-0.6C31.9,4.7,32.7,4.7,33.5,4.6z M22.6,29.3c1.6-1.6,3.3-2.5,3.4-5
	c0.1-3.1,2.9-6,5.9-6.2c2.6-0.1,3.9-1.7,5.4-3.6c-4.7-1.3-8.8-0.6-12.1,2.8C22,20.7,21.2,24.6,22.6,29.3z"/>
<path class="st0" d="M19.9,43.3c2.6-2.5,5-4.7,7.3-7.1c0.7-0.7,1.3-0.4,2-0.1c4.7,1.8,8.9,0.9,12.4-2.6c3.4-3.4,4.3-7.6,2.6-12.2
	c-0.4-1.1-0.4-1.8,0.5-2.6c2.3-2.2,4.5-4.4,6.7-6.7c0.9-0.9,1.4-0.9,2.4-0.2c4.2,3.2,7.8,7,10.8,11.3c0.9,1.4,1.3,2.7,0.3,4.1
	C58.4,36.4,50.3,43.5,39,45.9C32.5,47.2,26.3,46.2,19.9,43.3z"/>
<path class="st0" d="M40.6,23.3c0.9,3,0.1,5.5-2,7.5c-2,1.9-4.4,2.7-7.2,1.7C34.4,29.5,37.4,26.5,40.6,23.3z"/>
</svg>
