<?xml version="1.0" encoding="utf-8"?>
<!-- Generator: Adobe Illustrator 26.5.0, SVG Export Plug-In . SVG Version: 6.00 Build 0)  -->
<svg version="1.1" id="Layer_1" xmlns="http://www.w3.org/2000/svg" xmlns:xlink="http://www.w3.org/1999/xlink" x="0px" y="0px"
	 viewBox="0 0 37.5 53.9" style="enable-background:new 0 0 37.5 53.9;" xml:space="preserve">
<style type="text/css">
	.st0{fill:#4EB857;}
</style>
<path class="st0" d="M32.7,40.5c3,3,3,6.9,0.2,9.8c-2.9,3-6.9,3.2-10,0.2c-6.3-6.2-12.5-12.4-18.7-18.7c-2.9-3-2.9-6.8,0-9.8
	C10.4,15.7,16.6,9.4,23,3.3c1.3-1.3,3.7-2,5.6-2c2.9-0.1,4.9,2,5.9,4.6c1,2.7,0.4,5.1-1.6,7.1c-4.5,4.5-9.1,9-13.9,13.8
	C23.8,31.6,28.3,36,32.7,40.5z M30.6,11.6c2.3-2.3,2.3-4.5,0.2-6.5c-1.7-1.6-3.9-1.8-5.6-0.2c-6.5,6.3-12.9,12.8-19.3,19.2
	c-1.7,1.7-1.7,3.9,0,5.6c6.3,6.4,12.7,12.8,19.1,19.1c1.8,1.8,4.2,1.6,6-0.3c1.8-1.9,1.8-4-0.1-6c-4.5-4.6-9.2-9.2-13.7-13.8
	c-0.6-0.6-1.1-1.2-1.8-2C20.5,21.7,25.6,16.6,30.6,11.6z"/>
<g>
</g>
<g>
</g>
<g>
</g>
<g>
</g>
<g>
</g>
<g>
</g>
</svg>
