<?xml version="1.0" encoding="utf-8"?>
<!-- Generator: Adobe Illustrator 26.5.0, SVG Export Plug-In . SVG Version: 6.00 Build 0)  -->
<svg version="1.2" baseProfile="tiny" id="Layer_1" xmlns="http://www.w3.org/2000/svg" xmlns:xlink="http://www.w3.org/1999/xlink"
	 x="0px" y="0px" viewBox="0 0 605.57 181.85" overflow="visible" xml:space="preserve">
<g>
	<path fill="#FFFFFF" d="M305.74,21.81v78.52h-16.06V55.16c0-1.04,0.03-2.17,0.08-3.39c0.05-1.22,0.15-2.46,0.3-3.72L269.2,88.42
		c-0.65,1.26-1.52,2.21-2.61,2.86c-1.1,0.65-2.34,0.97-3.75,0.97h-2.48c-1.4,0-2.65-0.32-3.75-0.97c-1.1-0.65-1.97-1.6-2.61-2.86
		l-20.86-40.47c0.11,1.29,0.2,2.56,0.27,3.8c0.07,1.24,0.11,2.38,0.11,3.42v45.16h-16.06V21.81h13.9c0.79,0,1.48,0.02,2.07,0.05
		c0.59,0.04,1.12,0.14,1.59,0.32c0.47,0.18,0.89,0.46,1.27,0.84c0.38,0.38,0.75,0.91,1.11,1.59l20.21,39.83
		c0.72,1.37,1.41,2.78,2.07,4.26c0.66,1.47,1.3,2.98,1.91,4.53c0.61-1.58,1.25-3.13,1.91-4.63c0.66-1.51,1.37-2.95,2.13-4.31
		l20.16-39.66c0.36-0.68,0.73-1.21,1.1-1.59c0.38-0.38,0.8-0.66,1.27-0.84c0.47-0.18,1-0.29,1.59-0.32
		c0.59-0.04,1.28-0.05,2.07-0.05H305.74z"/>
	<path fill="#FFFFFF" d="M483.47,21.81L452,100.33h-16.49l-31.47-78.52h14.66c1.58,0,2.86,0.37,3.83,1.1
		c0.97,0.74,1.71,1.68,2.21,2.83l15.2,42.04c0.72,1.83,1.42,3.84,2.1,6.01c0.68,2.17,1.33,4.45,1.94,6.82
		c0.5-2.37,1.07-4.64,1.7-6.82c0.63-2.17,1.3-4.18,2.02-6.01l15.09-42.04c0.39-1.01,1.11-1.91,2.13-2.72
		c1.02-0.81,2.29-1.21,3.8-1.21H483.47z"/>
	<path fill="#FFFFFF" d="M513.38,100.33h-18.32V21.81h18.32V100.33z"/>
	<path fill="#FFFFFF" d="M552.29,35.82v18.32h24.68v13.47h-24.68v18.7h32.23v14.01h-50.55V21.81h50.55v14.01H552.29z"/>
</g>
<path fill="#010101" d="M359.41,20.32c22.53-0.02,40.65,18.1,40.64,40.65c-0.01,22.34-18.09,40.4-40.47,40.43
	c-22.59,0.03-40.75-18.02-40.76-40.53C318.82,38.47,336.96,20.34,359.41,20.32z M350.86,60.71c0,3.65-0.02,7.31,0.01,10.96
	c0.02,2.62,1.86,3.7,4.07,2.33c5.76-3.59,11.5-7.21,17.21-10.87c2.1-1.35,2.09-3.19-0.01-4.54c-5.72-3.65-11.46-7.26-17.23-10.83
	c-2.22-1.38-4.01-0.31-4.03,2.34C350.85,53.63,350.87,57.17,350.86,60.71z"/>
<g>
	<path fill="#010101" d="M256.14,146.69c0,3.08-0.53,5.91-1.59,8.51c-1.06,2.6-2.55,4.85-4.48,6.74c-1.93,1.9-4.25,3.38-6.96,4.44
		c-2.71,1.06-5.73,1.59-9.03,1.59h-16.52v-42.53h16.52c3.31,0,6.32,0.54,9.03,1.61c2.71,1.07,5.04,2.55,6.96,4.44
		c1.93,1.89,3.42,4.13,4.48,6.73C255.6,140.81,256.14,143.64,256.14,146.69z M246.04,146.69c0-2.1-0.27-4-0.82-5.69
		c-0.54-1.69-1.33-3.13-2.35-4.31c-1.02-1.18-2.27-2.08-3.75-2.71c-1.48-0.63-3.16-0.95-5.05-0.95h-6.6v27.35h6.6
		c1.89,0,3.57-0.32,5.05-0.95c1.48-0.63,2.73-1.54,3.75-2.71c1.02-1.18,1.81-2.61,2.35-4.31
		C245.76,150.72,246.04,148.81,246.04,146.69z"/>
	<path fill="#010101" d="M309.17,167.97h-7.65c-0.86,0-1.55-0.2-2.07-0.6c-0.53-0.4-0.92-0.91-1.2-1.53l-2.51-7.42h-16.17
		l-2.51,7.42c-0.21,0.54-0.6,1.04-1.15,1.47c-0.55,0.44-1.24,0.66-2.06,0.66h-7.71l16.46-42.53h10.1L309.17,167.97z M293.5,151.71
		l-3.94-11.65c-0.29-0.74-0.6-1.61-0.93-2.61s-0.66-2.09-0.99-3.26c-0.29,1.19-0.6,2.29-0.93,3.3c-0.33,1.01-0.64,1.89-0.93,2.63
		l-3.91,11.59H293.5z"/>
	<path fill="#010101" d="M349.46,133.26h-11.97v34.71h-9.87v-34.71h-11.97v-7.82h33.8V133.26z"/>
	<path fill="#010101" d="M398.97,167.97h-7.65c-0.86,0-1.55-0.2-2.07-0.6c-0.53-0.4-0.92-0.91-1.2-1.53l-2.51-7.42h-16.17
		l-2.51,7.42c-0.21,0.54-0.6,1.04-1.15,1.47c-0.55,0.44-1.24,0.66-2.06,0.66h-7.71l16.46-42.53h10.1L398.97,167.97z M383.29,151.71
		l-3.94-11.65c-0.29-0.74-0.6-1.61-0.93-2.61c-0.33-1-0.66-2.09-0.99-3.26c-0.29,1.19-0.6,2.29-0.93,3.3
		c-0.33,1.01-0.64,1.89-0.93,2.63l-3.91,11.59H383.29z"/>
	<path fill="#010101" d="M428.48,125.44c2.94,0,5.44,0.27,7.5,0.82c2.06,0.54,3.75,1.31,5.05,2.31c1.3,0.99,2.25,2.2,2.85,3.62
		c0.59,1.42,0.89,3.01,0.89,4.76c0,0.95-0.14,1.87-0.41,2.76c-0.27,0.89-0.7,1.71-1.28,2.48c-0.58,0.77-1.33,1.47-2.25,2.12
		c-0.91,0.64-2.01,1.2-3.3,1.66c2.8,0.68,4.88,1.78,6.22,3.3c1.34,1.52,2.01,3.48,2.01,5.9c0,1.81-0.35,3.49-1.05,5.05
		c-0.7,1.56-1.73,2.91-3.08,4.07c-1.35,1.16-3.02,2.06-5.01,2.71c-1.98,0.65-4.25,0.98-6.8,0.98h-16.99v-42.53H428.48z
		 M422.7,132.82v10.51h5.14c1.09,0,2.07-0.08,2.95-0.23c0.88-0.16,1.62-0.43,2.23-0.82c0.61-0.39,1.08-0.92,1.4-1.61
		c0.32-0.68,0.48-1.54,0.48-2.57c0-1.01-0.13-1.85-0.38-2.53c-0.25-0.67-0.64-1.21-1.17-1.62s-1.19-0.7-2-0.88
		c-0.81-0.17-1.77-0.26-2.88-0.26H422.7z M429.65,160.53c1.3,0,2.37-0.17,3.2-0.5s1.47-0.76,1.94-1.28
		c0.47-0.53,0.79-1.12,0.96-1.78c0.18-0.66,0.26-1.33,0.26-2.01c0-0.78-0.1-1.48-0.31-2.1s-0.55-1.15-1.05-1.58
		c-0.5-0.43-1.15-0.76-1.97-0.99c-0.82-0.23-1.85-0.35-3.09-0.35h-6.89v10.6H429.65z"/>
	<path fill="#010101" d="M499.85,167.97h-7.65c-0.86,0-1.55-0.2-2.07-0.6c-0.53-0.4-0.92-0.91-1.2-1.53l-2.51-7.42h-16.17
		l-2.51,7.42c-0.21,0.54-0.6,1.04-1.15,1.47c-0.55,0.44-1.24,0.66-2.06,0.66h-7.71l16.46-42.53h10.1L499.85,167.97z M484.18,151.71
		l-3.94-11.65c-0.29-0.74-0.6-1.61-0.93-2.61s-0.66-2.09-0.99-3.26c-0.29,1.19-0.6,2.29-0.93,3.3c-0.33,1.01-0.64,1.89-0.93,2.63
		l-3.91,11.59H484.18z"/>
	<path fill="#010101" d="M537.22,134.08c-0.29,0.47-0.6,0.82-0.92,1.05c-0.32,0.23-0.74,0.35-1.24,0.35c-0.45,0-0.93-0.14-1.44-0.42
		c-0.52-0.28-1.1-0.6-1.75-0.95c-0.65-0.35-1.4-0.67-2.23-0.95c-0.84-0.28-1.79-0.42-2.86-0.42c-1.85,0-3.23,0.39-4.13,1.18
		c-0.91,0.79-1.36,1.85-1.36,3.2c0,0.86,0.27,1.57,0.82,2.13c0.54,0.56,1.26,1.05,2.15,1.46c0.89,0.41,1.9,0.78,3.04,1.12
		s2.3,0.72,3.49,1.14c1.19,0.42,2.35,0.91,3.49,1.47c1.14,0.56,2.15,1.29,3.04,2.16c0.89,0.88,1.6,1.94,2.15,3.2
		c0.54,1.26,0.82,2.77,0.82,4.54c0,1.97-0.34,3.81-1.02,5.52c-0.68,1.71-1.67,3.21-2.96,4.48c-1.29,1.27-2.89,2.28-4.79,3.01
		c-1.9,0.73-4.05,1.09-6.47,1.09c-1.32,0-2.67-0.14-4.04-0.41c-1.37-0.27-2.7-0.66-3.98-1.15c-1.28-0.5-2.49-1.09-3.62-1.77
		c-1.13-0.68-2.11-1.44-2.95-2.28l2.92-4.61c0.23-0.33,0.54-0.61,0.92-0.83c0.38-0.22,0.79-0.34,1.24-0.34
		c0.58,0,1.17,0.19,1.77,0.56c0.59,0.37,1.26,0.78,2.01,1.23c0.75,0.45,1.61,0.86,2.58,1.23c0.97,0.37,2.12,0.55,3.44,0.55
		c1.79,0,3.18-0.39,4.17-1.18c0.99-0.79,1.49-2.04,1.49-3.75c0-0.99-0.27-1.8-0.82-2.42c-0.54-0.62-1.26-1.14-2.15-1.55
		c-0.89-0.41-1.89-0.77-3.02-1.08c-1.13-0.31-2.29-0.66-3.47-1.04c-1.19-0.38-2.35-0.85-3.47-1.4c-1.13-0.56-2.14-1.29-3.02-2.19
		c-0.89-0.91-1.6-2.03-2.15-3.39c-0.54-1.35-0.82-3.02-0.82-5.01c0-1.6,0.32-3.15,0.96-4.67c0.64-1.52,1.59-2.87,2.83-4.06
		c1.25-1.19,2.77-2.14,4.58-2.85c1.81-0.71,3.88-1.06,6.22-1.06c1.3,0,2.57,0.1,3.81,0.31c1.24,0.2,2.41,0.51,3.52,0.91
		c1.11,0.4,2.15,0.88,3.11,1.43c0.96,0.56,1.82,1.18,2.58,1.88L537.22,134.08z"/>
	<path fill="#010101" d="M566.5,133.03v9.92h13.37v7.3H566.5v10.13h17.46v7.59h-27.38v-42.53h27.38v7.59H566.5z"/>
</g>
<path fill="#010101" d="M87.31,13.71c45.13-0.05,81.44,36.26,81.42,81.43c-0.02,44.75-36.24,80.94-81.08,81
	C42.38,176.2,6,140.03,6,94.95C6,50.07,42.33,13.76,87.31,13.71z M70.19,94.62c0,7.32-0.05,14.64,0.02,21.96
	c0.04,5.26,3.73,7.42,8.15,4.67c11.54-7.18,23.03-14.44,34.47-21.77c4.21-2.69,4.2-6.4-0.03-9.1c-11.46-7.31-22.96-14.54-34.52-21.7
	c-4.45-2.76-8.03-0.63-8.07,4.68C70.16,80.45,70.2,87.54,70.19,94.62z"/>
</svg>
