<?xml version="1.0" encoding="utf-8"?>
<!-- Generator: Adobe Illustrator 26.5.0, SVG Export Plug-In . SVG Version: 6.00 Build 0)  -->
<svg version="1.2" baseProfile="tiny" id="Layer_1" xmlns="http://www.w3.org/2000/svg" xmlns:xlink="http://www.w3.org/1999/xlink"
	 x="0px" y="0px" viewBox="0 0 965.59 184.42" overflow="visible" xml:space="preserve">
<rect x="-35.06" y="256.31" fill="#EF3B39" width="1056" height="255.25"/>
<g>
	<path fill="#FFFFFF" d="M558.31,151.44h-21.28c-0.96,0-1.28-0.8-1.28-1.28V40.72c0-0.8,0.48-1.28,1.28-1.28h21.12
		c19.04,0,26.4,9.92,26.4,26.56v59.68C584.55,139.12,577.67,151.44,558.31,151.44z M552.71,55.44v80h5.6c8.64,0,9.28-6.4,9.28-10.56
		V66.64c0-5.28-1.12-11.2-9.44-11.2H552.71z"/>
	<path fill="#FFFFFF" d="M622.79,39.44c0.96,0,1.28,0.8,1.28,1.28l20.64,109.44c0,0.8-0.48,1.28-1.28,1.28h-14.4
		c-0.64,0-1.28-0.48-1.28-1.28l-3.36-19.68h-17.12l-3.36,19.68c0,0.8-0.48,1.28-1.28,1.28h-14.4c-0.8,0-1.28-0.48-1.28-1.28
		l21.28-109.44c0-0.48,0.32-1.28,1.28-1.28H622.79z M610.15,114.48h11.52l-5.76-33.44L610.15,114.48z"/>
	<path fill="#FFFFFF" d="M670.31,55.44v94.72c0,0.96-0.48,1.28-1.12,1.28h-14.56c-0.8,0-1.28-0.8-1.28-1.28V55.44h-14.56
		c-0.96,0-1.28-0.64-1.28-1.12v-13.6c0-0.8,0.48-1.28,1.28-1.28h46.24c0.64,0,1.28,0.48,1.28,1.28v13.6c0,0.8-0.64,1.12-1.28,1.12
		H670.31z"/>
	<path fill="#FFFFFF" d="M714.95,39.44c0.96,0,1.28,0.8,1.28,1.28l20.64,109.44c0,0.8-0.48,1.28-1.28,1.28h-14.4
		c-0.64,0-1.28-0.48-1.28-1.28l-3.36-19.68h-17.12l-3.36,19.68c0,0.8-0.48,1.28-1.28,1.28h-14.4c-0.8,0-1.28-0.48-1.28-1.28
		l21.28-109.44c0-0.48,0.32-1.28,1.28-1.28H714.95z M702.31,114.48h11.52l-5.76-33.44L702.31,114.48z"/>
	<path fill="#FFFFFF" d="M791.27,66v10.88c0,7.68-2.56,14.56-7.68,17.44c5.92,3.52,7.68,9.76,7.68,17.92v13.44
		c0,13.44-6.88,25.76-26.24,25.76h-19.2h-0.16h-1.92c-0.96,0-1.28-0.8-1.28-1.28V40.72c0-0.8,0.48-1.28,1.28-1.28h1.76h0.32h19.04
		C783.91,39.44,791.27,49.36,791.27,66z M759.43,55.44v31.2h5.6c8.64,0,9.28-6.08,9.28-10.24v-9.76c0-5.28-1.12-11.2-9.44-11.2
		H759.43z M759.43,102.64v32.8h5.6c8.64,0,9.28-6.4,9.28-10.56v-11.52c0-5.28-2.24-10.72-9.28-10.72H759.43z"/>
	<path fill="#FFFFFF" d="M829.51,39.44c0.96,0,1.28,0.8,1.28,1.28l20.64,109.44c0,0.8-0.48,1.28-1.28,1.28h-14.4
		c-0.64,0-1.28-0.48-1.28-1.28l-3.36-19.68h-17.12l-3.36,19.68c0,0.8-0.48,1.28-1.28,1.28h-14.4c-0.8,0-1.28-0.48-1.28-1.28
		l21.28-109.44c0-0.48,0.32-1.28,1.28-1.28H829.51z M816.87,114.48h11.52l-5.76-33.44L816.87,114.48z"/>
	<path fill="#FFFFFF" d="M876.55,136.08c6.56,0,7.36-5.44,7.36-9.6v-10.72c0-6.4-3.04-12-11.36-14.08
		c-14.88-3.52-20.32-16.16-20.32-28V62.96c0-13.44,8.16-24.8,24.32-24.8c17.12,0,24.32,10.4,24.32,24.8v6.08
		c0,0.8-0.48,1.12-1.28,1.12h-14.4c-0.64,0-1.28-0.32-1.28-1.12V64.4c0-4.16-1.6-9.6-7.36-9.6c-6.56,0-7.36,6.56-7.36,9.6v8.64
		c0,6.56,3.04,12.16,11.36,14.08c14.88,3.68,20.32,16.32,20.32,28.16v12.64c0,13.44-7.68,24.8-24.32,24.8s-24.32-11.36-24.32-24.8
		v-7.52c0-0.8,0.48-1.12,1.28-1.12h14.4c0.64,0,1.28,0.32,1.28,1.12v6.08C869.19,130.64,870.47,136.08,876.55,136.08z"/>
	<path fill="#FFFFFF" d="M912.55,151.44c-0.96,0-1.28-0.8-1.28-1.28V40.72c0-0.8,0.48-1.28,1.28-1.28h46.24
		c0.64,0,1.28,0.48,1.28,1.28v13.6c0,0.8-0.64,1.12-1.28,1.12h-30.56v31.2h23.2c0.64,0,1.28,0.48,1.28,1.28v13.44
		c0,0.96-0.64,1.28-1.28,1.28h-23.2v32.8h30.56c0.64,0,1.28,0.48,1.28,1.12v13.6c0,0.96-0.64,1.28-1.28,1.28H912.55z"/>
</g>
<g>
	<path fill="#FFFFFF" d="M265.19,95.08l-9.12,31.04c-0.32,1.12-0.8,2.4-2.08,2.56h-11.84c-1.28-0.16-1.6-1.44-2.08-2.56l-9.12-30.56
		v54.56c0,0.96-0.48,1.28-1.28,1.28h-14.08c-0.96,0-1.28-0.8-1.28-1.28V40.68c0-0.8,0.48-1.28,1.28-1.28h13.6
		c1.76,0,1.92,1.28,2.24,2.24l16.64,56.96l16.64-56.96c0.32-0.96,0.48-2.24,2.4-2.24h13.44c0.8,0,1.28,0.48,1.28,1.28v109.44
		c0,0.48-0.32,1.28-1.28,1.28h-14.08c-0.64,0-1.28-0.32-1.28-1.28V95.08z"/>
	<path fill="#FFFFFF" d="M318.15,152.68c-16.64,0-24.32-11.36-24.32-24.8V62.92c0-13.44,8.16-24.8,24.32-24.8
		c17.12,0,24.32,10.4,24.32,24.8v64.96C342.47,141.32,334.79,152.68,318.15,152.68z M310.79,127.24c0,4.16,1.28,9.44,7.36,9.44
		c6.56,0,7.36-5.28,7.36-9.44V63.56c0-4.16-1.6-9.44-7.36-9.44c-6.56,0-7.36,6.4-7.36,9.44V127.24z"/>
	<path fill="#FFFFFF" d="M367.11,151.4c-0.96,0-1.28-0.8-1.28-1.28L344.87,40.68c0-0.8,0.48-1.28,1.28-1.28h14.4
		c0.8,0,1.28,0.48,1.28,1.28l12,67.52l11.84-67.52c0-0.8,0.64-1.28,1.28-1.28h14.4c0.8,0,1.28,0.48,1.28,1.28l-20.96,109.44
		c0,0.48-0.32,1.28-1.28,1.28H367.11z"/>
	<path fill="#FFFFFF" d="M409.51,151.4c-0.96,0-1.28-0.8-1.28-1.28V40.68c0-0.8,0.48-1.28,1.28-1.28h14.4c0.8,0,1.28,0.48,1.28,1.28
		v109.44c0,0.96-0.48,1.28-1.28,1.28H409.51z"/>
	<path fill="#FFFFFF" d="M440.87,151.4c-0.96,0-1.28-0.8-1.28-1.28V40.68c0-0.8,0.48-1.28,1.28-1.28h46.24
		c0.64,0,1.28,0.48,1.28,1.28v13.6c0,0.8-0.64,1.12-1.28,1.12h-30.56v31.2h23.2c0.64,0,1.28,0.48,1.28,1.28v13.44
		c0,0.96-0.64,1.28-1.28,1.28h-23.2v32.8h30.56c0.64,0,1.28,0.48,1.28,1.12v13.6c0,0.96-0.64,1.28-1.28,1.28H440.87z"/>
</g>
<circle cx="88.57" cy="97.11" r="83.27"/>
<path fill="#FFFFFF" stroke="#000000" stroke-width="10" stroke-miterlimit="10" d="M59.12,95.92c0-11.05-0.06-22.1,0.02-33.15
	c0.06-8.57,5.7-11.77,13.21-7.23c18.25,11.05,36.39,22.26,54.49,33.55c6.74,4.21,6.83,10.01,0.19,14.18
	c-18.37,11.54-36.81,22.97-55.34,34.26c-6.49,3.96-12.43,0.66-12.53-6.83C59,119.11,59.11,107.52,59.12,95.92z"/>
<g>
</g>
<g>
</g>
<g>
</g>
<g>
</g>
<g>
</g>
<g>
</g>
</svg>
