<?xml version="1.0" encoding="utf-8"?>
<!-- Generator: Adobe Illustrator 26.5.0, SVG Export Plug-In . SVG Version: 6.00 Build 0)  -->
<svg version="1.1" id="Layer_1" xmlns="http://www.w3.org/2000/svg" xmlns:xlink="http://www.w3.org/1999/xlink" x="0px" y="0px"
	 viewBox="0 0 993.3 194.6" style="enable-background:new 0 0 993.3 194.6;" xml:space="preserve">
<style type="text/css">
	.st0{fill:#EF3B39;}
	.st1{fill:#4EB858;}
	.st2{fill:#161E31;stroke:#161E31;stroke-width:10;stroke-miterlimit:10;}
</style>
<rect x="-19.8" y="266.5" class="st0" width="1056" height="255.3"/>
<g>
	<path class="st1" d="M575.6,157.7h-21.3c-1,0-1.3-0.8-1.3-1.3V46.9c0-0.8,0.5-1.3,1.3-1.3h21.1c19,0,26.4,9.9,26.4,26.6v59.7
		C601.8,145.3,595,157.7,575.6,157.7z M570,61.7v80h5.6c8.6,0,9.3-6.4,9.3-10.6V72.9c0-5.3-1.1-11.2-9.4-11.2
		C575.5,61.7,570,61.7,570,61.7z"/>
	<path class="st1" d="M640.1,45.7c1,0,1.3,0.8,1.3,1.3L662,156.4c0,0.8-0.5,1.3-1.3,1.3h-14.4c-0.6,0-1.3-0.5-1.3-1.3l-3.4-19.7
		h-17.1l-3.4,19.7c0,0.8-0.5,1.3-1.3,1.3h-14.4c-0.8,0-1.3-0.5-1.3-1.3l21.3-109.4c0-0.5,0.3-1.3,1.3-1.3L640.1,45.7L640.1,45.7z
		 M627.5,120.7H639l-5.8-33.4L627.5,120.7z"/>
	<path class="st1" d="M687.6,61.7v94.7c0,1-0.5,1.3-1.1,1.3h-14.6c-0.8,0-1.3-0.8-1.3-1.3V61.7h-14.6c-1,0-1.3-0.6-1.3-1.1V46.9
		c0-0.8,0.5-1.3,1.3-1.3h46.2c0.6,0,1.3,0.5,1.3,1.3v13.6c0,0.8-0.6,1.1-1.3,1.1C702.3,61.7,687.6,61.7,687.6,61.7z"/>
	<path class="st1" d="M732.2,45.7c1,0,1.3,0.8,1.3,1.3l20.6,109.4c0,0.8-0.5,1.3-1.3,1.3h-14.4c-0.6,0-1.3-0.5-1.3-1.3l-3.4-19.7
		h-17.1l-3.4,19.7c0,0.8-0.5,1.3-1.3,1.3h-14.4c-0.8,0-1.3-0.5-1.3-1.3l21.3-109.4c0-0.5,0.3-1.3,1.3-1.3L732.2,45.7L732.2,45.7z
		 M719.6,120.7h11.5l-5.8-33.4L719.6,120.7z"/>
	<path class="st1" d="M808.6,72.2v10.9c0,7.7-2.6,14.6-7.7,17.4c5.9,3.5,7.7,9.8,7.7,17.9v13.4c0,13.4-6.9,25.8-26.2,25.8h-19.2H763
		h-1.9c-1,0-1.3-0.8-1.3-1.3V46.9c0-0.8,0.5-1.3,1.3-1.3h1.8h0.3h19C801.2,45.7,808.6,55.6,808.6,72.2z M776.7,61.7v31.2h5.6
		c8.6,0,9.3-6.1,9.3-10.2v-9.8c0-5.3-1.1-11.2-9.4-11.2C782.2,61.7,776.7,61.7,776.7,61.7z M776.7,108.9v32.8h5.6
		c8.6,0,9.3-6.4,9.3-10.6v-11.5c0-5.3-2.2-10.7-9.3-10.7C782.3,108.9,776.7,108.9,776.7,108.9z"/>
	<path class="st1" d="M846.8,45.7c1,0,1.3,0.8,1.3,1.3l20.6,109.4c0,0.8-0.5,1.3-1.3,1.3H853c-0.6,0-1.3-0.5-1.3-1.3l-3.4-19.7
		h-17.1l-3.4,19.7c0,0.8-0.5,1.3-1.3,1.3h-14.4c-0.8,0-1.3-0.5-1.3-1.3l21.3-109.4c0-0.5,0.3-1.3,1.3-1.3L846.8,45.7L846.8,45.7z
		 M834.2,120.7h11.5l-5.8-33.4L834.2,120.7z"/>
	<path class="st1" d="M893.8,142.3c6.6,0,7.4-5.4,7.4-9.6V122c0-6.4-3-12-11.4-14.1c-14.9-3.5-20.3-16.2-20.3-28V69.2
		c0-13.4,8.2-24.8,24.3-24.8c17.1,0,24.3,10.4,24.3,24.8v6.1c0,0.8-0.5,1.1-1.3,1.1h-14.4c-0.6,0-1.3-0.3-1.3-1.1v-4.6
		c0-4.2-1.6-9.6-7.4-9.6c-6.6,0-7.4,6.6-7.4,9.6v8.6c0,6.6,3,12.2,11.4,14.1c14.9,3.7,20.3,16.3,20.3,28.2v12.6
		c0,13.4-7.7,24.8-24.3,24.8s-24.3-11.4-24.3-24.8v-7.5c0-0.8,0.5-1.1,1.3-1.1h14.4c0.6,0,1.3,0.3,1.3,1.1v6.1
		C886.5,136.9,887.8,142.3,893.8,142.3z"/>
	<path class="st1" d="M929.8,157.7c-1,0-1.3-0.8-1.3-1.3V46.9c0-0.8,0.5-1.3,1.3-1.3h46.2c0.6,0,1.3,0.5,1.3,1.3v13.6
		c0,0.8-0.6,1.1-1.3,1.1h-30.6v31.2h23.2c0.6,0,1.3,0.5,1.3,1.3v13.4c0,1-0.6,1.3-1.3,1.3h-23.2v32.8h30.6c0.6,0,1.3,0.5,1.3,1.1
		v13.6c0,1-0.6,1.3-1.3,1.3H929.8z"/>
</g>
<g>
	<path class="st1" d="M282.5,101.3l-9.1,31c-0.3,1.1-0.8,2.4-2.1,2.6h-11.8c-1.3-0.2-1.6-1.4-2.1-2.6l-9.1-30.6v54.6
		c0,1-0.5,1.3-1.3,1.3h-14.1c-1,0-1.3-0.8-1.3-1.3V46.9c0-0.8,0.5-1.3,1.3-1.3h13.6c1.8,0,1.9,1.3,2.2,2.2l16.6,57l16.6-57
		c0.3-1,0.5-2.2,2.4-2.2h13.4c0.8,0,1.3,0.5,1.3,1.3v109.4c0,0.5-0.3,1.3-1.3,1.3h-14.1c-0.6,0-1.3-0.3-1.3-1.3L282.5,101.3
		L282.5,101.3z"/>
	<path class="st1" d="M335.5,158.9c-16.6,0-24.3-11.4-24.3-24.8v-65c0-13.4,8.2-24.8,24.3-24.8c17.1,0,24.3,10.4,24.3,24.8v65
		C359.8,147.5,352.1,158.9,335.5,158.9z M328.1,133.5c0,4.2,1.3,9.4,7.4,9.4c6.6,0,7.4-5.3,7.4-9.4V69.8c0-4.2-1.6-9.4-7.4-9.4
		c-6.6,0-7.4,6.4-7.4,9.4V133.5z"/>
	<path class="st1" d="M384.4,157.6c-1,0-1.3-0.8-1.3-1.3l-21-109.4c0-0.8,0.5-1.3,1.3-1.3h14.4c0.8,0,1.3,0.5,1.3,1.3l12,67.5
		L403,46.9c0-0.8,0.6-1.3,1.3-1.3h14.4c0.8,0,1.3,0.5,1.3,1.3l-21,109.4c0,0.5-0.3,1.3-1.3,1.3H384.4z"/>
	<path class="st1" d="M426.8,157.6c-1,0-1.3-0.8-1.3-1.3V46.9c0-0.8,0.5-1.3,1.3-1.3h14.4c0.8,0,1.3,0.5,1.3,1.3v109.4
		c0,1-0.5,1.3-1.3,1.3H426.8z"/>
	<path class="st1" d="M458.2,157.6c-1,0-1.3-0.8-1.3-1.3V46.9c0-0.8,0.5-1.3,1.3-1.3h46.2c0.6,0,1.3,0.5,1.3,1.3v13.6
		c0,0.8-0.6,1.1-1.3,1.1h-30.6v31.2h23.2c0.6,0,1.3,0.5,1.3,1.3v13.4c0,1-0.6,1.3-1.3,1.3h-23.2v32.8h30.6c0.6,0,1.3,0.5,1.3,1.1
		v13.6c0,1-0.6,1.3-1.3,1.3H458.2z"/>
</g>
<circle class="st1" cx="105.9" cy="103.3" r="83.3"/>
<path class="st2" d="M76.4,102.2c0-11.1-0.1-22.1,0-33.2c0.1-8.6,5.7-11.8,13.2-7.2c18.2,11,36.4,22.3,54.5,33.5
	c6.7,4.2,6.8,10,0.2,14.2c-18.4,11.5-36.8,23-55.3,34.3c-6.5,4-12.4,0.7-12.5-6.8C76.3,125.3,76.4,113.7,76.4,102.2z"/>
</svg>
