<?xml version="1.0" encoding="utf-8"?>
<!-- Generator: Adobe Illustrator 26.5.0, SVG Export Plug-In . SVG Version: 6.00 Build 0)  -->
<svg version="1.1" id="Layer_1" xmlns="http://www.w3.org/2000/svg" xmlns:xlink="http://www.w3.org/1999/xlink" x="0px" y="0px"
	 viewBox="0 0 1008.2 184.6" style="enable-background:new 0 0 1008.2 184.6;" xml:space="preserve">
<style type="text/css">
	.st0{fill:#4EB858;}
	.st1{fill:#161E31;stroke:#161E31;stroke-width:10;stroke-miterlimit:10;}
</style>
<circle class="st0" cx="102.9" cy="93.3" r="83.3"/>
<path class="st1" d="M73.4,92.1c0-11.1-0.1-22.1,0-33.2c0.1-8.6,5.7-11.8,13.2-7.2c18.2,11,36.4,22.3,54.5,33.6
	c6.7,4.2,6.8,10,0.2,14.2c-18.4,11.5-36.8,23-55.3,34.3c-6.5,4-12.4,0.7-12.5-6.8C73.3,115.3,73.4,103.7,73.4,92.1z"/>
<g>
	<g>
		<path class="st0" d="M257.8,68.6h-0.5v75h-24.7v-105h34.8l25,72.1l25-72.1h34.8v105h-24.7v-75h-0.5l-26.2,75h-16.8L257.8,68.6z"/>
		<path class="st0" d="M370.5,91.1c0-24.4,11.7-55.5,53.1-55.5c36.1,0,53.1,23.7,53.1,55.5s-16.9,55.5-53.1,55.5
			C382.2,146.6,370.5,115.5,370.5,91.1z M450,91.1c0-9.6-1.2-35.1-26.4-35.1c-13.6,0-26.2,7.3-26.2,35.1c0,27.4,12.6,35.1,26.2,35.1
			C448.8,126.2,450,99.9,450,91.1z"/>
		<path class="st0" d="M552.1,38.6h27.4l-35.7,105h-26.2l-35.5-105h28.3l21.3,75L552.1,38.6z"/>
		<path class="st0" d="M614.1,38.6v105h-24.8v-105H614.1z"/>
		<path class="st0" d="M713.2,80.3v19.3h-51.3v23.5h59.7v20.4h-84.4v-105h82.9V59h-58.2v21.3H713.2z"/>
	</g>
</g>
<g>
	<path class="st0" d="M806.7,37c10,0,51,1.2,51,52.3c0,49.6-36.3,52.6-53.2,52.6h-42.9V37H806.7z M786.3,121.6h15.7
		c19.3,0,28.9-10,28.9-31.8c0-29.1-17.1-32.4-27.4-32.4h-17.2V121.6z"/>
	<path class="st0" d="M928.4,37c27.4,0,32.4,15.3,32.4,26.7c0,12.1-7,18.4-17.2,21.9v0.1c8.1,1.6,22.3,7.6,22.3,26.8
		c0,25.2-21.6,29.4-40.2,29.4h-49.9V37H928.4z M900.5,78.4h22.8c10,0,12.3-6.7,12.3-10.8c0-4.3-2.4-10.2-13.3-10.2h-21.7V78.4z
		 M900.5,121.6h25.6c4.3,0,13.6-2.2,13.6-11.8c0-10-7.8-12-16.8-12h-22.5V121.6z"/>
</g>
</svg>
