<?xml version="1.0" encoding="utf-8"?>
<!-- Generator: Adobe Illustrator 26.5.0, SVG Export Plug-In . SVG Version: 6.00 Build 0)  -->
<svg version="1.2" baseProfile="tiny" id="Layer_1" xmlns="http://www.w3.org/2000/svg" xmlns:xlink="http://www.w3.org/1999/xlink"
	 x="0px" y="0px" viewBox="0 0 866.73 174" overflow="visible" xml:space="preserve">
<g>
	<path fill="#FFFFFF" d="M505.59,139.02h-18.62c-0.84,0-1.12-0.7-1.12-1.12V42.14c0-0.7,0.42-1.12,1.12-1.12h18.48
		c16.66,0,23.1,8.68,23.1,23.24v52.22C528.55,128.24,522.53,139.02,505.59,139.02z M500.69,55.02v70h4.9c7.56,0,8.12-5.6,8.12-9.24
		V64.82c0-4.62-0.98-9.8-8.26-9.8H500.69z"/>
	<path fill="#FFFFFF" d="M562.01,41.02c0.84,0,1.12,0.7,1.12,1.12l18.06,95.76c0,0.7-0.42,1.12-1.12,1.12h-12.6
		c-0.56,0-1.12-0.42-1.12-1.12l-2.94-17.22h-14.98l-2.94,17.22c0,0.7-0.42,1.12-1.12,1.12h-12.6c-0.7,0-1.12-0.42-1.12-1.12
		l18.62-95.76c0-0.42,0.28-1.12,1.12-1.12H562.01z M550.95,106.68h10.08l-5.04-29.26L550.95,106.68z"/>
	<path fill="#FFFFFF" d="M603.59,55.02v82.88c0,0.84-0.42,1.12-0.98,1.12h-12.74c-0.7,0-1.12-0.7-1.12-1.12V55.02h-12.74
		c-0.84,0-1.12-0.56-1.12-0.98v-11.9c0-0.7,0.42-1.12,1.12-1.12h40.46c0.56,0,1.12,0.42,1.12,1.12v11.9c0,0.7-0.56,0.98-1.12,0.98
		H603.59z"/>
	<path fill="#FFFFFF" d="M642.65,41.02c0.84,0,1.12,0.7,1.12,1.12l18.06,95.76c0,0.7-0.42,1.12-1.12,1.12h-12.6
		c-0.56,0-1.12-0.42-1.12-1.12l-2.94-17.22h-14.98l-2.94,17.22c0,0.7-0.42,1.12-1.12,1.12h-12.6c-0.7,0-1.12-0.42-1.12-1.12
		l18.62-95.76c0-0.42,0.28-1.12,1.12-1.12H642.65z M631.59,106.68h10.08l-5.04-29.26L631.59,106.68z"/>
	<path fill="#FFFFFF" d="M709.43,64.26v9.52c0,6.72-2.24,12.74-6.72,15.26c5.18,3.08,6.72,8.54,6.72,15.68v11.76
		c0,11.76-6.02,22.54-22.96,22.54h-16.8h-0.14h-1.68c-0.84,0-1.12-0.7-1.12-1.12V42.14c0-0.7,0.42-1.12,1.12-1.12h1.54h0.28h16.66
		C702.99,41.02,709.43,49.7,709.43,64.26z M681.57,55.02v27.3h4.9c7.56,0,8.12-5.32,8.12-8.96v-8.54c0-4.62-0.98-9.8-8.26-9.8
		H681.57z M681.57,96.32v28.7h4.9c7.56,0,8.12-5.6,8.12-9.24V105.7c0-4.62-1.96-9.38-8.12-9.38H681.57z"/>
	<path fill="#FFFFFF" d="M742.89,41.02c0.84,0,1.12,0.7,1.12,1.12l18.06,95.76c0,0.7-0.42,1.12-1.12,1.12h-12.6
		c-0.56,0-1.12-0.42-1.12-1.12l-2.94-17.22h-14.98l-2.94,17.22c0,0.7-0.42,1.12-1.12,1.12h-12.6c-0.7,0-1.12-0.42-1.12-1.12
		l18.62-95.76c0-0.42,0.28-1.12,1.12-1.12H742.89z M731.83,106.68h10.08l-5.04-29.26L731.83,106.68z"/>
	<path fill="#FFFFFF" d="M784.05,125.58c5.74,0,6.44-4.76,6.44-8.4v-9.38c0-5.6-2.66-10.5-9.94-12.32
		c-13.02-3.08-17.78-14.14-17.78-24.5V61.6c0-11.76,7.14-21.7,21.28-21.7c14.98,0,21.28,9.1,21.28,21.7v5.32
		c0,0.7-0.42,0.98-1.12,0.98h-12.6c-0.56,0-1.12-0.28-1.12-0.98v-4.06c0-3.64-1.4-8.4-6.44-8.4c-5.74,0-6.44,5.74-6.44,8.4v7.56
		c0,5.74,2.66,10.64,9.94,12.32c13.02,3.22,17.78,14.28,17.78,24.64v11.06c0,11.76-6.72,21.7-21.28,21.7
		c-14.56,0-21.28-9.94-21.28-21.7v-6.58c0-0.7,0.42-0.98,1.12-0.98h12.6c0.56,0,1.12,0.28,1.12,0.98v5.32
		C777.61,120.82,778.73,125.58,784.05,125.58z"/>
	<path fill="#FFFFFF" d="M815.55,139.02c-0.84,0-1.12-0.7-1.12-1.12V42.14c0-0.7,0.42-1.12,1.12-1.12h40.46
		c0.56,0,1.12,0.42,1.12,1.12v11.9c0,0.7-0.56,0.98-1.12,0.98h-26.74v27.3h20.3c0.56,0,1.12,0.42,1.12,1.12V95.2
		c0,0.84-0.56,1.12-1.12,1.12h-20.3v28.7h26.74c0.56,0,1.12,0.42,1.12,0.98v11.9c0,0.84-0.56,1.12-1.12,1.12H815.55z"/>
</g>
<g>
	<path d="M260.93,89.7l-7.98,27.16c-0.28,0.98-0.7,2.1-1.82,2.24h-10.36c-1.12-0.14-1.4-1.26-1.82-2.24l-7.98-26.74v47.74
		c0,0.84-0.42,1.12-1.12,1.12h-12.32c-0.84,0-1.12-0.7-1.12-1.12V42.1c0-0.7,0.42-1.12,1.12-1.12h11.9c1.54,0,1.68,1.12,1.96,1.96
		l14.56,49.84l14.56-49.84c0.28-0.84,0.42-1.96,2.1-1.96h11.76c0.7,0,1.12,0.42,1.12,1.12v95.76c0,0.42-0.28,1.12-1.12,1.12h-12.32
		c-0.56,0-1.12-0.28-1.12-1.12V89.7z"/>
	<path d="M286.69,126.24V54c0-8.68,3.78-13.72,14.14-13.72h14.28c10.36,0,14.14,5.04,14.14,13.58v72.1c0,8.68-3.08,13.72-14,13.72
		h-14.14C289.91,139.68,286.69,134.64,286.69,126.24z M313.71,54.42h-11.48c-0.56,0-0.7,0.14-0.7,0.7v69.72c0,0.56,0.14,0.7,0.7,0.7
		h11.48c0.56,0,0.7-0.14,0.7-0.7V55.12C314.41,54.56,314.27,54.42,313.71,54.42z"/>
	<path d="M350.81,138.98c-0.84,0-1.12-0.7-1.12-1.12L333.45,42.1c0-0.7,0.42-1.12,1.12-1.12h13.16c0.56,0,1.12,0.42,1.12,1.12
		l9.1,60.06l9.24-60.06c0-0.7,0.42-1.12,1.12-1.12h13.16c0.7,0,1.12,0.42,1.12,1.12l-16.24,95.76c0,0.42-0.28,1.12-1.12,1.12H350.81
		z"/>
	<path d="M390.01,138.98c-0.84,0-1.12-0.7-1.12-1.12V42.1c0-0.7,0.42-1.12,1.12-1.12h12.6c0.7,0,1.12,0.42,1.12,1.12v95.76
		c0,0.84-0.42,1.12-1.12,1.12H390.01z"/>
	<path d="M417.45,138.98c-0.84,0-1.12-0.7-1.12-1.12V42.1c0-0.7,0.42-1.12,1.12-1.12h26.04c0.56,0,1.12,0.42,1.12,1.12V54
		c0,0.7-0.56,0.98-1.12,0.98h-12.32v27.16h12.32c0.56,0,1.12,0.42,1.12,1.12v11.9c0,0.84-0.56,1.12-1.12,1.12h-12.32v28.56h12.32
		c0.56,0,1.12,0.42,1.12,0.98v12.04c0,0.84-0.56,1.12-1.12,1.12H417.45z"/>
</g>
<g>
	<path d="M91.73,166.38c-22.23,0-44.46,0-66.69,0c-6.36,0-8.98-2.65-8.98-9.07c0-6.73,0.04-13.46-0.02-20.18
		c-0.02-2.04,0.71-3.08,2.8-3.49c3.78-0.73,6.24-3.88,6.2-7.53c-0.04-3.63-2.4-6.56-6.18-7.32c-2.05-0.41-2.85-1.44-2.83-3.49
		c0.06-7.15,0-14.31,0.03-21.46c0.02-4.72,3-7.76,7.68-7.77c45.31-0.02,90.62-0.02,135.94-0.01c4.96,0,7.9,2.99,7.92,7.97
		c0.03,7.08-0.01,14.16,0.03,21.25c0.01,2-0.7,3.1-2.82,3.5c-3.78,0.72-6.12,3.64-6.17,7.31c-0.05,3.76,2.29,6.82,6.14,7.55
		c2.25,0.42,2.87,1.61,2.85,3.68c-0.06,6.94,0,13.88-0.03,20.82c-0.02,5.34-2.96,8.25-8.32,8.25
		C136.76,166.38,114.25,166.38,91.73,166.38z M69.77,88.8c-15.08,0-30.17,0-45.25,0c-3.95,0-5.62,1.64-5.63,5.5
		c-0.01,6.59,0.04,13.17-0.03,19.76c-0.01,1.3,0.42,1.82,1.63,2.22c4.6,1.51,7.34,5.26,7.37,9.81c0.03,4.67-2.72,8.52-7.37,10.03
		c-1.24,0.4-1.64,0.94-1.63,2.22c0.06,6.59,0.01,13.17,0.03,19.76c0.01,3.77,1.65,5.44,5.44,5.44c30.38,0.01,60.76,0.02,91.14-0.03
		c0.75,0,1.67-0.5,2.23-1.05c1.17-1.16,2.07-1.1,3.23,0c0.57,0.54,1.46,1.04,2.21,1.04c12.11,0.07,24.22,0.06,36.33,0.04
		c3.58-0.01,5.31-1.77,5.32-5.38c0.02-6.52-0.02-13.03,0.04-19.55c0.01-1.38-0.28-2.11-1.77-2.56c-4.55-1.4-7.24-5.22-7.24-9.88
		c0-4.62,2.73-8.43,7.26-9.87c1.28-0.41,1.77-0.92,1.75-2.33c-0.09-6.59-0.02-13.17-0.04-19.76c-0.01-3.67-1.79-5.41-5.53-5.41
		c-11.97-0.01-23.93,0-35.9-0.01c-1.08,0-1.94,0.06-2.64,1.21c-0.71,1.16-2.14,1.17-2.82-0.01c-0.75-1.3-1.76-1.2-2.88-1.2
		C99.94,88.8,84.85,88.8,69.77,88.8z"/>
	<path d="M25.03,84.05c5.34-5.28,10.4-10.22,15.39-15.22C60.74,48.5,81.04,28.15,101.35,7.8c4.52-4.53,8.28-4.54,12.77-0.04
		c4.7,4.71,9.37,9.45,14.13,14.11c1.56,1.52,1.95,2.84,0.62,4.79c-2.13,3.13-1.64,6.94,0.93,9.52c2.57,2.58,6.33,3.05,9.52,0.9
		c1.86-1.25,3.14-0.98,4.62,0.53c4.95,5.06,10,10.03,14.98,15.06c3.45,3.49,3.38,7.75-0.11,11.26c-6.1,6.12-12.26,12.17-18.26,18.38
		c-1.6,1.65-3.19,2.43-5.79,1.8c0.75-0.79,1.39-1.47,2.04-2.13c6.5-6.52,13-13.03,19.5-19.55c3.08-3.1,3.1-5.3,0.08-8.34
		c-4.54-4.57-9.12-9.1-13.64-13.69c-0.85-0.86-1.45-1.14-2.69-0.47c-4.34,2.33-9.04,1.5-12.45-1.97c-3.12-3.18-3.79-7.95-1.53-12.17
		c0.61-1.14,0.35-1.74-0.45-2.53c-4.77-4.74-9.49-9.53-14.27-14.26c-2.3-2.28-4.82-2.33-7.11-0.05
		c-8.79,8.73-17.53,17.52-26.23,26.33c-0.42,0.42-0.49,1.33-0.49,2c0.01,1.52-0.76,2.52-2.14,2.18c-1.37-0.34-1.94,0.32-2.69,1.07
		c-14,14.03-28.04,28.03-41.98,42.12C29.17,84.2,27.64,84.64,25.03,84.05z"/>
	<path d="M21.68,130.1c-1.27-1.37-2.48-2.73-3.75-4.02c-3.88-3.91-7.81-7.79-11.68-11.7c-3.41-3.45-3.41-7.81-0.01-11.27
		c2.47-2.52,5-4.99,7.51-7.47c0.08-0.08,0.25-0.06,0.46-0.11c0.4,2.05,0.2,3.8-1.58,5.25c-1.52,1.25-2.84,2.76-4.22,4.16
		c-2.51,2.55-2.54,5.05-0.03,7.57c4.48,4.51,8.93,9.06,13.51,13.47C23.38,127.41,23.32,128.49,21.68,130.1z"/>
	<path d="M119.26,78.69c-1.27,0.88-2.03,1.81-2.68,1.74c-0.68-0.08-1.24-1.13-1.86-1.76c0.63-0.61,1.21-1.63,1.9-1.72
		C117.26,76.87,118.01,77.82,119.26,78.69z"/>
	<path d="M95.95,55.34c-1.37,0.83-2.15,1.67-2.86,1.62c-0.63-0.04-1.19-1.08-1.78-1.67c0.64-0.63,1.22-1.67,1.92-1.76
		C93.87,53.45,94.64,54.41,95.95,55.34z"/>
	<path d="M87.33,46.67c0.88,1.29,1.76,2.01,1.75,2.72c-0.01,0.62-1.1,1.77-1.56,1.7c-0.75-0.11-1.82-0.96-1.92-1.64
		C85.49,48.81,86.44,48,87.33,46.67z"/>
	<path d="M101.78,60.99c-1.28,0.94-2.04,1.92-2.7,1.86c-0.68-0.07-1.59-1.09-1.74-1.83c-0.1-0.46,1.01-1.61,1.62-1.65
		C99.68,59.34,100.45,60.18,101.78,60.99z"/>
	<path d="M107.62,67.03c-1.33,0.83-2.15,1.75-2.8,1.64c-0.66-0.11-1.52-1.18-1.61-1.91c-0.06-0.48,1.11-1.57,1.7-1.55
		C105.65,65.22,106.35,66.12,107.62,67.03z"/>
	<path d="M110.89,75.54c-0.93-1.29-1.88-2.03-1.82-2.67c0.07-0.69,1.01-1.61,1.72-1.79c0.43-0.11,1.61,0.97,1.66,1.58
		C112.51,73.37,111.69,74.15,110.89,75.54z"/>
	<path d="M84.17,43.57c-1.31,0.85-2.04,1.69-2.74,1.66c-0.6-0.03-1.69-1.14-1.61-1.62c0.12-0.72,1.01-1.73,1.68-1.82
		C82.13,41.71,82.89,42.66,84.17,43.57z"/>
	<path d="M123.96,84.23c-1.03,0-2.06,0-3.09,0c-0.08-0.12-0.16-0.24-0.24-0.36c0.54-0.38,1.05-1.04,1.61-1.08
		c0.65-0.04,1.33,0.46,2,0.73C124.14,83.75,124.05,83.99,123.96,84.23z"/>
	<path d="M116.64,146.82c1.25-0.84,2.04-1.78,2.7-1.7c0.68,0.09,1.71,1.19,1.7,1.84c-0.01,0.62-1.13,1.66-1.81,1.71
		C118.56,148.71,117.83,147.73,116.64,146.82z"/>
	<path d="M121.93,97.31c-1.24,0.82-2.04,1.77-2.68,1.67c-0.69-0.11-1.72-1.22-1.69-1.86c0.02-0.64,1.14-1.67,1.83-1.71
		C120.04,95.37,120.76,96.38,121.93,97.31z"/>
	<path d="M121.94,113.82c-1.23,0.85-2.01,1.8-2.65,1.72c-0.69-0.09-1.76-1.17-1.74-1.79c0.02-0.65,1.1-1.7,1.79-1.77
		C119.98,111.91,120.73,112.91,121.94,113.82z"/>
	<path d="M121.93,130.32c-1.21,0.88-1.96,1.85-2.61,1.78c-0.69-0.08-1.78-1.13-1.78-1.76c0-0.64,1.06-1.71,1.75-1.8
		C119.94,128.47,120.71,129.45,121.93,130.32z"/>
	<path d="M121.98,121.98c-1.23,0.91-1.98,1.88-2.63,1.82c-0.7-0.06-1.32-1.09-1.97-1.7c0.62-0.64,1.19-1.69,1.88-1.79
		C119.92,120.23,120.71,121.15,121.98,121.98z"/>
	<path d="M121.97,105.39c-1.22,0.91-1.96,1.9-2.61,1.84c-0.7-0.06-1.31-1.09-1.96-1.7c0.62-0.64,1.17-1.69,1.87-1.79
		C119.91,103.64,120.7,104.56,121.97,105.39z"/>
	<path d="M121.98,138.54c-1.23,0.91-1.98,1.89-2.63,1.84c-0.7-0.06-1.31-1.1-1.96-1.72c0.62-0.63,1.19-1.69,1.89-1.78
		C119.92,136.79,120.71,137.72,121.98,138.54z"/>
	<path d="M119.18,152.56c0.92,1.18,1.92,1.89,1.87,2.54c-0.05,0.69-1.06,1.8-1.68,1.82c-0.65,0.02-1.75-0.98-1.86-1.66
		C117.41,154.62,118.35,153.81,119.18,152.56z"/>
</g>
<g>
</g>
<g>
</g>
<g>
</g>
<g>
</g>
<g>
</g>
<g>
</g>
</svg>
