<?xml version="1.0" encoding="utf-8"?>
<!-- Generator: Adobe Illustrator 26.5.0, SVG Export Plug-In . SVG Version: 6.00 Build 0)  -->
<svg version="1.2" baseProfile="tiny" id="Layer_1" xmlns="http://www.w3.org/2000/svg" xmlns:xlink="http://www.w3.org/1999/xlink"
	 x="0px" y="0px" viewBox="0 0 866.73 174" overflow="visible" xml:space="preserve">
<g>
	<path fill="#FFFFFF" d="M494.59,139.02h-18.62c-0.84,0-1.12-0.7-1.12-1.12V42.14c0-0.7,0.42-1.12,1.12-1.12h18.48
		c16.66,0,23.1,8.68,23.1,23.24v52.22C517.55,128.24,511.53,139.02,494.59,139.02z M489.69,55.02v70h4.9c7.56,0,8.12-5.6,8.12-9.24
		V64.82c0-4.62-0.98-9.8-8.26-9.8H489.69z"/>
	<path fill="#FFFFFF" d="M551.01,41.02c0.84,0,1.12,0.7,1.12,1.12l18.06,95.76c0,0.7-0.42,1.12-1.12,1.12h-12.6
		c-0.56,0-1.12-0.42-1.12-1.12l-2.94-17.22h-14.98l-2.94,17.22c0,0.7-0.42,1.12-1.12,1.12h-12.6c-0.7,0-1.12-0.42-1.12-1.12
		l18.62-95.76c0-0.42,0.28-1.12,1.12-1.12H551.01z M539.95,106.68h10.08l-5.04-29.26L539.95,106.68z"/>
	<path fill="#FFFFFF" d="M592.59,55.02v82.88c0,0.84-0.42,1.12-0.98,1.12h-12.74c-0.7,0-1.12-0.7-1.12-1.12V55.02h-12.74
		c-0.84,0-1.12-0.56-1.12-0.98v-11.9c0-0.7,0.42-1.12,1.12-1.12h40.46c0.56,0,1.12,0.42,1.12,1.12v11.9c0,0.7-0.56,0.98-1.12,0.98
		H592.59z"/>
	<path fill="#FFFFFF" d="M631.65,41.02c0.84,0,1.12,0.7,1.12,1.12l18.06,95.76c0,0.7-0.42,1.12-1.12,1.12h-12.6
		c-0.56,0-1.12-0.42-1.12-1.12l-2.94-17.22h-14.98l-2.94,17.22c0,0.7-0.42,1.12-1.12,1.12h-12.6c-0.7,0-1.12-0.42-1.12-1.12
		l18.62-95.76c0-0.42,0.28-1.12,1.12-1.12H631.65z M620.59,106.68h10.08l-5.04-29.26L620.59,106.68z"/>
	<path fill="#FFFFFF" d="M698.43,64.26v9.52c0,6.72-2.24,12.74-6.72,15.26c5.18,3.08,6.72,8.54,6.72,15.68v11.76
		c0,11.76-6.02,22.54-22.96,22.54h-16.8h-0.14h-1.68c-0.84,0-1.12-0.7-1.12-1.12V42.14c0-0.7,0.42-1.12,1.12-1.12h1.54h0.28h16.66
		C691.99,41.02,698.43,49.7,698.43,64.26z M670.57,55.02v27.3h4.9c7.56,0,8.12-5.32,8.12-8.96v-8.54c0-4.62-0.98-9.8-8.26-9.8
		H670.57z M670.57,96.32v28.7h4.9c7.56,0,8.12-5.6,8.12-9.24V105.7c0-4.62-1.96-9.38-8.12-9.38H670.57z"/>
	<path fill="#FFFFFF" d="M731.89,41.02c0.84,0,1.12,0.7,1.12,1.12l18.06,95.76c0,0.7-0.42,1.12-1.12,1.12h-12.6
		c-0.56,0-1.12-0.42-1.12-1.12l-2.94-17.22h-14.98l-2.94,17.22c0,0.7-0.42,1.12-1.12,1.12h-12.6c-0.7,0-1.12-0.42-1.12-1.12
		l18.62-95.76c0-0.42,0.28-1.12,1.12-1.12H731.89z M720.83,106.68h10.08l-5.04-29.26L720.83,106.68z"/>
	<path fill="#FFFFFF" d="M773.05,125.58c5.74,0,6.44-4.76,6.44-8.4v-9.38c0-5.6-2.66-10.5-9.94-12.32
		c-13.02-3.08-17.78-14.14-17.78-24.5V61.6c0-11.76,7.14-21.7,21.28-21.7c14.98,0,21.28,9.1,21.28,21.7v5.32
		c0,0.7-0.42,0.98-1.12,0.98h-12.6c-0.56,0-1.12-0.28-1.12-0.98v-4.06c0-3.64-1.4-8.4-6.44-8.4c-5.74,0-6.44,5.74-6.44,8.4v7.56
		c0,5.74,2.66,10.64,9.94,12.32c13.02,3.22,17.78,14.28,17.78,24.64v11.06c0,11.76-6.72,21.7-21.28,21.7
		c-14.56,0-21.28-9.94-21.28-21.7v-6.58c0-0.7,0.42-0.98,1.12-0.98h12.6c0.56,0,1.12,0.28,1.12,0.98v5.32
		C766.61,120.82,767.73,125.58,773.05,125.58z"/>
	<path fill="#FFFFFF" d="M804.55,139.02c-0.84,0-1.12-0.7-1.12-1.12V42.14c0-0.7,0.42-1.12,1.12-1.12h40.46
		c0.56,0,1.12,0.42,1.12,1.12v11.9c0,0.7-0.56,0.98-1.12,0.98h-26.74v27.3h20.3c0.56,0,1.12,0.42,1.12,1.12V95.2
		c0,0.84-0.56,1.12-1.12,1.12h-20.3v28.7h26.74c0.56,0,1.12,0.42,1.12,0.98v11.9c0,0.84-0.56,1.12-1.12,1.12H804.55z"/>
</g>
<g>
	<path d="M249.93,89.7l-7.98,27.16c-0.28,0.98-0.7,2.1-1.82,2.24h-10.36c-1.12-0.14-1.4-1.26-1.82-2.24l-7.98-26.74v47.74
		c0,0.84-0.42,1.12-1.12,1.12h-12.32c-0.84,0-1.12-0.7-1.12-1.12V42.1c0-0.7,0.42-1.12,1.12-1.12h11.9c1.54,0,1.68,1.12,1.96,1.96
		l14.56,49.84l14.56-49.84c0.28-0.84,0.42-1.96,2.1-1.96h11.76c0.7,0,1.12,0.42,1.12,1.12v95.76c0,0.42-0.28,1.12-1.12,1.12h-12.32
		c-0.56,0-1.12-0.28-1.12-1.12V89.7z"/>
	<path d="M275.69,126.24V54c0-8.68,3.78-13.72,14.14-13.72h14.28c10.36,0,14.14,5.04,14.14,13.58v72.1c0,8.68-3.08,13.72-14,13.72
		h-14.14C278.91,139.68,275.69,134.64,275.69,126.24z M302.71,54.42h-11.48c-0.56,0-0.7,0.14-0.7,0.7v69.72c0,0.56,0.14,0.7,0.7,0.7
		h11.48c0.56,0,0.7-0.14,0.7-0.7V55.12C303.41,54.56,303.27,54.42,302.71,54.42z"/>
	<path d="M339.81,138.98c-0.84,0-1.12-0.7-1.12-1.12L322.45,42.1c0-0.7,0.42-1.12,1.12-1.12h13.16c0.56,0,1.12,0.42,1.12,1.12
		l9.1,60.06l9.24-60.06c0-0.7,0.42-1.12,1.12-1.12h13.16c0.7,0,1.12,0.42,1.12,1.12l-16.24,95.76c0,0.42-0.28,1.12-1.12,1.12H339.81
		z"/>
	<path d="M379.01,138.98c-0.84,0-1.12-0.7-1.12-1.12V42.1c0-0.7,0.42-1.12,1.12-1.12h12.6c0.7,0,1.12,0.42,1.12,1.12v95.76
		c0,0.84-0.42,1.12-1.12,1.12H379.01z"/>
	<path d="M406.45,138.98c-0.84,0-1.12-0.7-1.12-1.12V42.1c0-0.7,0.42-1.12,1.12-1.12h26.04c0.56,0,1.12,0.42,1.12,1.12V54
		c0,0.7-0.56,0.98-1.12,0.98h-12.32v27.16h12.32c0.56,0,1.12,0.42,1.12,1.12v11.9c0,0.84-0.56,1.12-1.12,1.12h-12.32v28.56h12.32
		c0.56,0,1.12,0.42,1.12,0.98v12.04c0,0.84-0.56,1.12-1.12,1.12H406.45z"/>
</g>
<path fill="#FAA220" d="M104.38,40.1c27.72-0.03,50.03,22.28,50.02,50.02c-0.01,27.49-22.26,49.72-49.81,49.76
	c-27.81,0.04-50.15-22.18-50.16-49.87C54.43,62.43,76.76,40.13,104.38,40.1z M93.87,89.8c0,4.5-0.03,8.99,0.01,13.49
	c0.03,3.23,2.29,4.56,5.01,2.87c7.09-4.41,14.15-8.87,21.18-13.37c2.58-1.66,2.58-3.93-0.02-5.59c-7.04-4.49-14.11-8.93-21.2-13.33
	c-2.74-1.7-4.93-0.39-4.96,2.87C93.85,81.1,93.87,85.45,93.87,89.8z"/>
<g>
</g>
<g>
</g>
<g>
</g>
<g>
</g>
<g>
</g>
<g>
</g>
</svg>
