<?xml version="1.0" encoding="utf-8"?>
<!-- Generator: Adobe Illustrator 26.5.0, SVG Export Plug-In . SVG Version: 6.00 Build 0)  -->
<svg version="1.1" id="Layer_1" xmlns="http://www.w3.org/2000/svg" xmlns:xlink="http://www.w3.org/1999/xlink" x="0px" y="0px"
	 viewBox="0 0 25.4 25.3" style="enable-background:new 0 0 25.4 25.3;" xml:space="preserve">
<style type="text/css">
	.st0{fill:#4EB857;}
</style>
<path class="st0" d="M1.3,12.4c0-1.3,0-2.7,0-4c0.2-5.5,5.6-9,10.6-6.9c3,1.3,6,2.9,8.8,4.7c4.7,3,4.7,9.7,0,12.8
	c-2.8,1.8-5.8,3.3-8.8,4.7c-4.8,2.1-10.1-1.2-10.6-6.5C1.2,15.6,1.3,14,1.3,12.4C1.3,12.4,1.3,12.4,1.3,12.4z M4.3,12.6
	c0,1.2-0.1,2.5,0,3.7c0.2,4.1,3.6,6,7.2,4.2c2.4-1.2,4.7-2.4,7-3.8c3.6-2.1,3.6-6.3,0-8.4c-2.4-1.4-4.8-2.7-7.3-3.9
	c-3.5-1.7-6.8,0.4-7,4.3C4.2,10.1,4.3,11.4,4.3,12.6z"/>
<path class="st0" d="M7.9,13.1c-0.1-6-0.2-6.7,5-3.6c1.2,0.7,2.5,1.3,3.7,2c1.5,0.9,1,1.7-0.2,2.4c-2,1.1-4.1,2.2-6.2,3.3
	c-1.5,0.8-2.4,0.5-2.4-1.4C7.9,14.7,7.9,13.6,7.9,13.1z"/>
<g>
</g>
<g>
</g>
<g>
</g>
<g>
</g>
<g>
</g>
<g>
</g>
</svg>
