<?xml version="1.0" encoding="utf-8"?>
<!-- Generator: Adobe Illustrator 26.5.0, SVG Export Plug-In . SVG Version: 6.00 Build 0)  -->
<svg version="1.1" id="Layer_1" xmlns="http://www.w3.org/2000/svg" xmlns:xlink="http://www.w3.org/1999/xlink" x="0px" y="0px"
	 viewBox="0 0 37.5 53.9" style="enable-background:new 0 0 37.5 53.9;" xml:space="preserve">
<style type="text/css">
	.st0{fill:#4EB857;}
</style>
<path class="st0" d="M18.1,26.8c-4.8-4.8-9.4-9.2-13.9-13.8c-2-2-2.7-4.4-1.6-7.1c1-2.7,3-4.7,5.9-4.6c1.9,0,4.2,0.7,5.6,2
	C20.4,9.4,26.6,15.7,32.8,22c2.9,3,2.9,6.8,0,9.8c-6.2,6.3-12.4,12.5-18.7,18.7c-3,3-7.1,2.8-10-0.2c-2.8-2.9-2.7-6.8,0.2-9.8
	C8.8,36,13.3,31.6,18.1,26.8z M21.7,26.8c-0.7,0.8-1.3,1.4-1.8,2c-4.6,4.6-9.2,9.2-13.7,13.8c-1.9,2-1.9,4.1-0.1,6
	c1.8,1.8,4.1,2.1,6,0.3c6.4-6.3,12.8-12.7,19.1-19.1c1.7-1.7,1.7-3.9,0-5.6c-6.4-6.5-12.8-12.9-19.3-19.2c-1.7-1.6-3.9-1.4-5.6,0.2
	c-2.1,2-2.1,4.2,0.2,6.5C11.5,16.6,16.5,21.7,21.7,26.8z"/>
<g>
</g>
<g>
</g>
<g>
</g>
<g>
</g>
<g>
</g>
<g>
</g>
</svg>
