<?xml version="1.0" encoding="utf-8"?>
<!-- Generator: Adobe Illustrator 26.5.0, SVG Export Plug-In . SVG Version: 6.00 Build 0)  -->
<svg version="1.1" id="Layer_1" xmlns="http://www.w3.org/2000/svg" xmlns:xlink="http://www.w3.org/1999/xlink" x="0px" y="0px"
	 viewBox="0 0 67.5 49.1" style="enable-background:new 0 0 67.5 49.1;" xml:space="preserve">
<style type="text/css">
	.st0{fill:#4EB857;}
</style>
<path class="st0" d="M40.6,23.3c0.9,3,0.1,5.5-2,7.5c-2,1.9-4.4,2.7-7.2,1.7C34.4,29.5,37.4,26.5,40.6,23.3z"/>
<path class="st0" d="M32.9,7.8c12.3,0.4,21.9,5.5,28.8,15.6c1.2,1.7,1.3,3.1,0.1,4.9C48.4,49.2,17.5,49.2,4,28.4
	c-1.2-1.8-1.1-3.2,0.1-4.9C11.1,13.4,20.7,8.2,32.9,7.8z M33,13.5c-6.9,0-12.6,5.6-12.6,12.5c0,6.8,5.5,12.4,12.3,12.5
	c6.9,0.1,12.6-5.5,12.7-12.4C45.5,19.2,39.9,13.5,33,13.5z"/>
<path class="st0" d="M41.4,26c0,4.7-3.9,8.5-8.6,8.5c-4.6-0.1-8.3-3.9-8.3-8.5c0-4.7,3.9-8.5,8.6-8.5C37.7,17.6,41.4,21.4,41.4,26z"
	/>
</svg>
