<?xml version="1.0" encoding="utf-8"?>
<!-- Generator: Adobe Illustrator 26.5.0, SVG Export Plug-In . SVG Version: 6.00 Build 0)  -->
<svg version="1.1" id="Layer_1" xmlns="http://www.w3.org/2000/svg" xmlns:xlink="http://www.w3.org/1999/xlink" x="0px" y="0px"
	 viewBox="0 0 75.8 70.2" style="enable-background:new 0 0 75.8 70.2;" xml:space="preserve">
<style type="text/css">
	.st0{fill:#4EB857;stroke:#4EB857;stroke-width:3;stroke-miterlimit:10;}
</style>
<path class="st0" d="M17.2,56.7c0.6-1,0.4-1.8,0.4-2.6c0-13.4,0-26.8,0-40.2c0-0.8,0-1.7,0.1-2.5c0.2-1.3,1.1-2,2.4-2.1
	c1.3-0.1,2.3,0.5,2.7,1.8c0.2,1,0.3,2,0.3,3c0,13.2,0,26.5,0,39.7c0,0.9,0,1.8,0,3.4c3.2-3.6,5.9-6.6,8.6-9.7
	c2.3-2.6,3.7-3.1,5.2-1.8c1.5,1.2,1.2,2.9-1,5.3c-4.3,4.8-8.6,9.5-12.9,14.3c-2.1,2.3-3.2,2.4-5.3,0.1c-4.5-5-9-10.1-13.5-15.1
	c-1.3-1.5-2-3-0.3-4.5c1.6-1.5,3.1-0.5,4.3,0.9c2.5,2.8,5,5.6,7.5,8.4C16.1,55.5,16.6,56.1,17.2,56.7z"/>
<path class="st0" d="M57.8,13.4c0,14.4,0,28.4,0,42.5c0,0.8,0,1.7-0.1,2.5c-0.1,1.3-0.9,2.1-2.2,2.3c-1.4,0.2-2.5-0.3-2.9-1.7
	c-0.3-0.9-0.3-2-0.3-3c0-13.2,0-26.5,0-39.7c0-0.9,0-1.8,0-3.3c-3.1,3.5-5.7,6.4-8.3,9.4c-0.6,0.6-1.1,1.2-1.7,1.8
	c-1.2,1.3-2.5,1.3-3.8,0.2c-1.3-1.1-1.3-2.6-0.2-3.8c5-5.6,10-11.1,15.1-16.7c1.3-1.4,2.8-1,3.9,0.2c4.9,5.4,9.8,10.9,14.6,16.4
	c1.1,1.2,1,2.7-0.2,3.8c-1.3,1.2-2.7,0.9-3.8-0.3c-2.6-2.8-5.1-5.7-7.7-8.5C59.5,14.8,59.1,13.9,57.8,13.4z"/>
</svg>
