<?xml version="1.0" encoding="utf-8"?>
<!-- Generator: Adobe Illustrator 26.5.0, SVG Export Plug-In . SVG Version: 6.00 Build 0)  -->
<svg version="1.1" id="Layer_1" xmlns="http://www.w3.org/2000/svg" xmlns:xlink="http://www.w3.org/1999/xlink" x="0px" y="0px"
	 viewBox="0 0 252 211.1" style="enable-background:new 0 0 252 211.1;" xml:space="preserve">
<style type="text/css">
	.st0{fill:#4EB857;}
</style>
<path class="st0" d="M214.5,98.1c-4.9-1.6-9.6-2.8-14.4-3.1c-1.9-0.1-1.6-1.3-1.6-2.4c0-21.4,0-42.8,0-64.2c0-4.6-1.1-5.8-5.7-5.8
	c-54.8,0-109.6,0-164.4,0c-4.7,0-5.8,1.1-5.8,5.9c0,41.4,0,82.8,0,124.2c0,4.7,1.1,5.8,5.9,5.8c34.6,0,69.1,0,103.7-0.1
	c2.2,0,2.8,0.7,2.9,2.7c0.2,4.5,1.5,8.8,2.9,13.3c-1.1,0-2.1,0-3.1,0c-38.2,0-76.3,0-114.5,0c-9.3,0-13.9-4.6-13.9-14
	c0-46.6,0.1-93.3-0.1-139.9c0-8.4,5.5-14.1,14.2-14.1c60,0.2,120,0.1,179.9,0.1c9.3,0,13.9,4.6,13.9,14c0,24.8,0,49.6,0,74.5
	C214.5,96,214.5,96.9,214.5,98.1z"/>
<path class="st0" d="M82.7,150.6c-16.6,0-33.1,0-49.7,0c-1.9,0-2.5-0.4-2.5-2.4c0.1-11.5,0.1-23,0-34.5c0-1.4,0.3-2.5,1.3-3.6
	c7.4-8.5,14.7-17,22.1-25.4c5.4-6.2,14.1-6.1,19.4,0.2c6.3,7.6,12.5,15.3,18.7,23.1c1.2,1.5,1.7,1.7,3,0.1
	c12-14.7,24.1-29.3,36.2-43.9c6.1-7.4,14.7-7.3,20.8,0.1c8.4,10.2,16.8,20.4,25.3,30.6c1.2,1.4,1.4,1.9-0.7,2.6
	c-24.4,8.5-38.3,25.6-41.7,51.2c-0.2,1.7-0.9,1.9-2.4,1.9C116,150.6,99.3,150.6,82.7,150.6z"/>
<path class="st0" d="M194.5,102.6c28.4-0.1,51.9,23.2,52,51.7c0.1,28.7-23.1,52.2-51.6,52.3c-29.1,0-52.3-23.1-52.3-52.3
	C142.5,126,165.9,102.7,194.5,102.6z M182.5,171.2c0,4.7,0,9.5,0,14.2c0,3.8,1.3,5.2,5,5.2c4.7,0,9.3,0,14,0c3.6,0,5-1.4,5-5
	c0-8,0-16,0-24c0-2.3-1-5.4,0.5-6.7c1.3-1.1,4.3-0.3,6.5-0.3c0.2,0,0.3,0,0.5,0c1.8,0,3.2-0.7,4.1-2.3c0.8-1.6,0.4-3.1-0.6-4.4
	c-6.4-9-12.8-18-19.3-27c-2.1-2.9-5.1-2.9-7.2,0c-6.5,9-13,18.1-19.5,27.2c-1,1.4-1.3,2.9-0.5,4.4c0.8,1.5,2.2,2.2,3.9,2.2
	c2,0,4,0.1,6-0.1c1.4-0.1,1.7,0.4,1.6,1.7C182.5,161.2,182.5,166.2,182.5,171.2z"/>
<path class="st0" d="M95.4,68.7c-8.9,0-16-7.1-16-16c0-8.8,7.2-16,16-16c8.7,0,15.8,7.2,15.9,15.9C111.4,61.4,104.2,68.7,95.4,68.7z
	"/>
</svg>
